<svg id="Barebones" xmlns="http://www.w3.org/2000/svg" viewBox="0 0 820.99 467.46"><defs><style>.cls-1{fill:#3b54a4;}.cls-1,.cls-2,.cls-3,.cls-4,.cls-5,.cls-6,.cls-7{stroke:#231f20;stroke-miterlimit:10;}.cls-2{fill:#1e2f56;}.cls-3{fill:#c2bedf;}.cls-4{fill:#5a5b9b;}.cls-5{fill:#3c3c6b;}.cls-6{fill:#fff;}.cls-7{fill:#3a53a4;}</style></defs><title>Fish_(blues)</title><path class="cls-1" d="M829.85,204.72c-35.92-17.41-70.66-36.63-106.65-44-74.86-15.37-143,6.65-206.11,36.89C631.69,233.9,807.51,296.76,787.31,274c-8.59-9.69-12.27-24-12.2-39.67C775.28,197.74,809.34,197.89,829.85,204.72Z" transform="translate(-266.45 -155.17)"/><path class="cls-2" d="M727.2,181.75c-71.72-22.85-140.81-8.94-205.88,13.84l-2.57,1.21q5.34,2.34,10.85,4.78C615,229,727.42,268.08,770.77,277a82.83,82.83,0,0,1,.26-16.54,40.59,40.59,0,0,1,4.65-15.61,90.54,90.54,0,0,1-.57-10.53c.06-11.94,3.74-19.95,9.38-25.1C765.72,198,746.85,188,727.2,181.75Z" transform="translate(-266.45 -155.17)"/><path class="cls-1" d="M517.83,197.24l-.55.26.49.3c85.48,27.11,204.59,68.8,251.26,78.8a26.8,26.8,0,0,1,15.3-6.46c-4.93-7.21-7.74-16.31-8.76-26.32-16-12.65-32.2-24-49.57-32.37C657.33,178.55,586.13,183.28,517.83,197.24Z" transform="translate(-266.45 -155.17)"/><path class="cls-2" d="M518.57,198.06c88.22,28,211.73,71.3,254.79,79.42-15.87-16.09-32.15-30.93-50.2-42.19C658.78,195.13,587.77,191.83,518.57,198.06Z" transform="translate(-266.45 -155.17)"/><path class="cls-1" d="M793.43,576c-32.06,15.54-63.06,32.69-95.17,39.28-66.8,13.71-127.62-5.93-183.92-32.92,102.26-32.39,259.15-88.49,241.12-68.14-7.66,8.64-10.94,21.41-10.88,35.39C744.73,582.2,775.12,582.07,793.43,576Z" transform="translate(-266.45 -155.17)"/><path class="cls-2" d="M515.58,581.94c58.12,22.28,120.14,36.85,185.42,17.9,19-5.5,37.19-14.78,55.41-25.24-6.94-4.3-11.77-12.07-11.83-25,0-2.28.08-4.52.25-6.72a37.9,37.9,0,0,1-2.9-12.18,69.1,69.1,0,0,1,.91-19.6C704.24,518.41,594.19,557,515.58,581.94Z" transform="translate(-266.45 -155.17)"/><path class="cls-1" d="M703.11,582.79c14.75-5.73,28.84-13.85,42.72-23a40.79,40.79,0,0,1-1.25-10.18,68.38,68.38,0,0,1,2.77-20.4c-4.23-3.62-7.5-9.15-9.19-17.14-41.86,9.2-145.3,45.33-220.79,69.33C577.06,598.36,639.93,607.32,703.11,582.79Z" transform="translate(-266.45 -155.17)"/><path class="cls-2" d="M699.81,564.17c16.41-8.12,31.65-19.34,46.63-31.7a42.16,42.16,0,0,1,9-18.28c1.17-1.32,1.6-2.32,1.36-3a30.4,30.4,0,0,1-10-.76c-33.72,5.05-145.11,44.06-226.25,70C579.71,591.07,641,593.25,699.81,564.17Z" transform="translate(-266.45 -155.17)"/><path class="cls-1" d="M755.09,510.05c-16.9-3.63-150,43.51-240.47,72.2l-.18.13.1,0c70.15,1.79,141.79-5,205.13-44.65A240.65,240.65,0,0,0,755.09,510.05Z" transform="translate(-266.45 -155.17)"/><path class="cls-2" d="M515,582.65c69.93-3.28,140.7-15.22,200.88-59.22q5.63-4.11,10.94-8.64C679.17,527.15,584.56,560.07,515,582.14l-.35.32Z" transform="translate(-266.45 -155.17)"/><path class="cls-3" d="M867.44,406C880,510.61,622.31,615.78,599.13,618.73c-32.71,4.16-67.45,5-101.15-.29L338,488.78c-.17-.56-.34-1.12-.5-1.67a208.41,208.41,0,0,1-7.69-73.2c10.17-143.85,137.34-245.45,268-230.73,65.22,7.35,128.75,38.41,180.13,81.66C819.48,299.77,860.48,348,867.44,406Z" transform="translate(-266.45 -155.17)"/><path class="cls-4" d="M778,264.84c-51.38-43.25-114.91-74.31-180.13-81.66-97.28-11-192.61,42.57-239.18,130-.4,2.29-.79,4.58-1.15,6.88-13.72,88.16,9.25,172,56,229.91L486,608.69a194.77,194.77,0,0,0,31.27,12.11c27.54,2.49,55.39,1.3,81.9-2.07,10.1-1.29,64.67-22,122-53.52C766.06,522.7,799,461.59,810.06,390.53a322.51,322.51,0,0,0,.9-94.4A366.75,366.75,0,0,0,778,264.84Z" transform="translate(-266.45 -155.17)"/><path class="cls-5" d="M723.56,412.72c11.94-76.65-3.87-150-38.92-205.93-27.93-12-57.19-20.27-86.8-23.61-130.67-14.72-257.84,86.88-268,230.73a208.41,208.41,0,0,0,7.69,73.2c.16.55.33,1.11.5,1.67L498,618.44c31.54,4.95,64,4.53,94.81,1C658.63,579.52,709.29,504.41,723.56,412.72Z" transform="translate(-266.45 -155.17)"/><path class="cls-4" d="M637.44,411.39c13.69-87.91-9.12-171.47-55.59-229.41-124.88-5.12-242.26,94-252,231.93a208.41,208.41,0,0,0,7.69,73.2c.16.55.33,1.11.5,1.67L498,618.44c2.2.34,4.41.66,6.61.95C571.44,579.76,623,504,637.44,411.39Z" transform="translate(-266.45 -155.17)"/><path class="cls-3" d="M503.7,192.36c-92,28.68-166.2,113.1-173.87,221.55a208.41,208.41,0,0,0,7.69,73.2c.16.55.33,1.11.5,1.67l115.82,93.88C500.7,540,535.19,477.5,546.57,404.43,559,325,541.5,249,503.7,192.36Z" transform="translate(-266.45 -155.17)"/><path class="cls-6" d="M725.41,313.75c16.32-5.56,77.89-19.66,64.56,18.09-5.15,14.59-17.32,27-27.05,38.77-13.71,16.53-28.36,33.46-35.55,52.71-11.66,31.21,3.4,55.48,13.55,86.3,9.53,29-22.27,17.64-37.07,10.24-31.37-15.67-58.12-41-83.31-66.42-9.9-10-29.78-22.29-31.85-30.12-1.79-6.8,20.77-27.07,28.41-35.27C647.46,355.48,684.15,327.81,725.41,313.75Z" transform="translate(-266.45 -155.17)"/><path class="cls-6" d="M725,313.75c16.31-5.56,77.89-19.66,64.56,18.09-5.15,14.59-17.32,27-27,38.77-13.71,16.53-28.36,33.46-35.55,52.71-11.66,31.21,3.4,55.48,13.54,86.3,9.54,29-22.26,17.64-37.06,10.24-31.37-15.67-58.12-41-83.31-66.42-9.9-10-29.79-22.29-31.85-30.12-1.79-6.8,20.77-27.07,28.41-35.27C647,355.48,683.69,327.81,725,313.75Z" transform="translate(-266.45 -155.17)"/><path class="cls-1" d="M725,313.75c16.31-5.56,77.89-19.66,64.56,18.09-5.15,14.59-17.32,27-27,38.77-13.71,16.53-28.36,33.46-35.55,52.71-11.66,31.21,3.4,55.48,13.54,86.3,9.54,29-22.26,17.64-37.06,10.24-31.37-15.67-58.12-41-83.31-66.42-9.9-10-29.79-22.29-31.85-30.12-1.79-6.8,20.77-27.07,28.41-35.27C647,355.48,683.69,327.81,725,313.75Z" transform="translate(-266.45 -155.17)"/><path class="cls-2" d="M623.75,388.05c-9.43,8.2-37.24,28.47-35,35.27,2.54,7.83,27.06,20.13,39.27,30.12,31.06,25.44,64,50.75,102.72,66.42,3,1.23,6.65,2.57,10.51,3.82,1.44-2.94,1.42-7.45-.76-14.06-10.14-30.82-25.2-55.09-13.54-86.3,7.19-19.25,21.84-36.18,35.55-52.71,9.73-11.73,21.9-24.18,27-38.77,4.61-13.06.26-19.91-8.08-23.06a221.12,221.12,0,0,0-24.15,5C706.41,327.81,661.17,355.48,623.75,388.05Z" transform="translate(-266.45 -155.17)"/><path class="cls-1" d="M762.47,370.61c9.73-11.73,21.9-24.18,27-38.77,1.67-4.73,2.16-8.64,1.72-11.86a542.49,542.49,0,0,0-154.82,68.07c-12.81,8.2-50.66,28.47-47.66,35.27,3.46,7.83,36.82,20.13,53.43,30.12,30.19,18.17,61.72,36.25,96.45,50.83-10-28.34-22.7-51.56-11.72-80.95C734.11,404.07,748.76,387.14,762.47,370.61Z" transform="translate(-266.45 -155.17)"/><path class="cls-2" d="M762.47,370.61c8.47-10.21,18.78-21,24.71-33.21a860,860,0,0,0-134.81,50.65c-16.37,7.79-63.11,26.5-64.21,34.17,0,.1,0,.21,0,.32a1.59,1.59,0,0,0,.22.78c4.64,7.83,49.44,20.13,71.74,30.12,22.9,10.27,46.36,20.5,70.85,30.1-7.23-19.77-12.24-38.28-4-60.22C734.11,404.07,748.76,387.14,762.47,370.61Z" transform="translate(-266.45 -155.17)"/><path class="cls-1" d="M677.25,388.05c-23.76,8.2-93.91,28.47-88.34,35.27,6.41,7.83,68.25,20.13,99,30.12q18.43,6,37.26,11.93c-3.31-13.41-3.94-26.91,1.71-42.05,7.19-19.25,21.84-36.18,35.55-52.71,3.15-3.8,6.55-7.67,9.88-11.66C738.81,368,707.05,377.77,677.25,388.05Z" transform="translate(-266.45 -155.17)"/><path class="cls-2" d="M715.75,386.83c-31.57,7.57-120.09,25.43-127.16,33.48a9.63,9.63,0,0,0-.36,1.31,1.32,1.32,0,0,0,.36.48c8.69,7.37,88,18.69,134.23,28.32a64.57,64.57,0,0,1,4.1-27.1c6.22-16.66,18-31.57,30-46Q735.92,382,715.75,386.83Z" transform="translate(-266.45 -155.17)"/><path class="cls-1" d="M743.44,394.32c-66.72,9.6-164,23.58-154.15,29,9.4,5.15,72.12,12.22,133.51,19.3a65,65,0,0,1,4.12-19.3C730.74,413.09,736.67,403.52,743.44,394.32Z" transform="translate(-266.45 -155.17)"/><path class="cls-2" d="M734.26,408.13c-89.41,6.24-157.14,12.1-144,15.19,12.4,2.92,64.72,6.46,133.75,10.27a67.54,67.54,0,0,1,2.95-10.27A98.2,98.2,0,0,1,734.26,408.13Z" transform="translate(-266.45 -155.17)"/><path class="cls-1" d="M730.22,415.66c-102.21,3.18-159,5.89-136.9,7.68,18,1.45,64.76,3.06,132,4.78.47-1.59,1-3.18,1.59-4.8C727.89,420.72,729,418.17,730.22,415.66Z" transform="translate(-266.45 -155.17)"/><path class="cls-7" d="M483,198.46c25.77-10.92,123-38.58,102,35.5C576.83,262.59,557.61,287,542.25,310c-21.65,32.44-44.79,65.66-56.14,103.43-18.41,61.25,5.37,108.86,21.39,169.34,15.06,56.87-35.16,34.62-58.53,20.11-49.54-30.75-91.78-80.42-131.56-130.33-15.64-19.62-47-43.74-50.3-59.12-2.83-13.34,32.8-53.12,44.86-69.2C359.91,280.35,417.85,226.05,483,198.46Z" transform="translate(-266.45 -155.17)"/><path class="cls-1" d="M997.48,565.4c18,6.52,109.92,35.1,85.3-16.41-22.68-47.43-72.47-79.8-72.47-131.51,0-52.09,50.23-83.66,72.47-131.52,23.78-51.17-65.74-23.5-85.3-16.4C912,300.53,766.8,409.31,766.75,417.48,766.65,434.77,912.41,534.55,997.48,565.4Z" transform="translate(-266.45 -155.17)"/><path class="cls-2" d="M1010.31,417.48c0-47.73,42.17-78.23,66.34-119.82C931.25,341.73,766.82,411,766.75,417.48h0a3.29,3.29,0,0,0,0,.44c3.25,14.59,166.49,78.93,310.34,120.45C1052.79,496.51,1010.31,465.24,1010.31,417.48Z" transform="translate(-266.45 -155.17)"/><path class="cls-1" d="M1010.31,417.48c0-18.54,6.37-34.47,15.56-49.47-151.69,25.32-259,46.08-259.12,49.47,0,0,0,0,0,.07s0,.09,0,.13c1.85,7.42,110,28.86,261.75,53.59C1017.91,454.92,1010.31,437.68,1010.31,417.48Z" transform="translate(-266.45 -155.17)"/><path class="cls-2" d="M1010.31,417.48a80.11,80.11,0,0,1,1.59-15.84c-154.69,8.41-245,14.18-245.15,15.84-.31,3.5,90.4,10.41,246,19.44A80.18,80.18,0,0,1,1010.31,417.48Z" transform="translate(-266.45 -155.17)"/><path class="cls-6" d="M331,488.65" transform="translate(-266.45 -155.17)"/><path class="cls-6" d="M489.13,618" transform="translate(-266.45 -155.17)"/></svg>