<svg xmlns="http://www.w3.org/2000/svg" viewBox="0 0 820.99 467.46"><defs><style>.cls-1{fill:#8052a1;}.cls-1,.cls-2,.cls-3,.cls-4,.cls-5,.cls-6{stroke:#231f20;stroke-miterlimit:10;}.cls-2{fill:#412b54;}.cls-3{fill:#442875;}.cls-4{fill:#5d429a;}.cls-5{fill:#7563ab;}.cls-6{fill:#fff;}</style></defs><title>Fish_(Purples)</title><g id="Dorsal_Fin" data-name="Dorsal Fin"><path class="cls-1" d="M822.85,204.59c-35.92-17.41-70.66-36.63-106.65-44-74.86-15.37-143,6.65-206.11,36.89,114.6,36.31,290.42,99.17,270.22,76.37-8.59-9.69-12.27-24-12.2-39.67C768.28,197.61,802.34,197.76,822.85,204.59Z" transform="translate(-259.45 -155.04)"/><path class="cls-2" d="M720.2,181.62c-71.72-22.85-140.81-8.94-205.88,13.84l-2.57,1.21,10.85,4.78C608,228.85,720.42,268,763.77,276.84A82.83,82.83,0,0,1,764,260.3a40.59,40.59,0,0,1,4.65-15.61,90.54,90.54,0,0,1-.57-10.53c.06-11.94,3.74-19.95,9.38-25.1C758.72,197.82,739.85,187.89,720.2,181.62Z" transform="translate(-259.45 -155.04)"/><path class="cls-1" d="M510.83,197.11l-.55.26.49.3c85.48,27.11,204.59,68.8,251.26,78.8a26.8,26.8,0,0,1,15.3-6.46c-4.93-7.21-7.74-16.31-8.76-26.32-16-12.65-32.2-24-49.57-32.37C650.33,178.42,579.13,183.15,510.83,197.11Z" transform="translate(-259.45 -155.04)"/><path class="cls-2" d="M511.57,197.93c88.22,28,211.73,71.3,254.79,79.42-15.87-16.09-32.15-30.93-50.2-42.19C651.78,195,580.77,191.7,511.57,197.93Z" transform="translate(-259.45 -155.04)"/></g><g id="Pelvic_Fin" data-name="Pelvic Fin"><path class="cls-1" d="M786.43,575.84c-32.06,15.54-63.06,32.69-95.17,39.28-66.8,13.72-127.62-5.93-183.92-32.91,102.26-32.4,259.15-88.5,241.12-68.15-7.66,8.64-10.94,21.41-10.88,35.39C737.73,582.07,768.12,581.94,786.43,575.84Z" transform="translate(-259.45 -155.04)"/><path class="cls-2" d="M508.58,581.81c58.12,22.28,120.14,36.85,185.42,17.9,19-5.5,37.19-14.78,55.41-25.24-6.94-4.3-11.77-12.07-11.83-25,0-2.28.08-4.52.25-6.72a37.9,37.9,0,0,1-2.9-12.18,69.1,69.1,0,0,1,.91-19.6C697.24,518.28,587.19,556.87,508.58,581.81Z" transform="translate(-259.45 -155.04)"/><path class="cls-1" d="M696.11,582.66c14.75-5.73,28.84-13.85,42.72-23a40.79,40.79,0,0,1-1.25-10.18,68.38,68.38,0,0,1,2.77-20.4c-4.23-3.62-7.5-9.15-9.19-17.14-41.86,9.2-145.3,45.33-220.79,69.33C570.06,598.24,632.93,607.19,696.11,582.66Z" transform="translate(-259.45 -155.04)"/><path class="cls-2" d="M692.81,564c16.41-8.12,31.65-19.34,46.63-31.7a42.16,42.16,0,0,1,9-18.28c1.17-1.32,1.6-2.32,1.36-3a30.4,30.4,0,0,1-10-.76c-33.72,5.05-145.11,44.06-226.25,70C572.71,590.94,634,593.12,692.81,564Z" transform="translate(-259.45 -155.04)"/><path class="cls-1" d="M748.09,509.92c-16.9-3.63-150,43.51-240.47,72.2l-.18.13.1,0c70.15,1.79,141.79-5,205.13-44.65A240.65,240.65,0,0,0,748.09,509.92Z" transform="translate(-259.45 -155.04)"/><path class="cls-2" d="M508,582.52c69.93-3.28,140.7-15.22,200.88-59.22q5.63-4.11,10.94-8.64C672.17,527,577.56,559.94,508,582l-.35.32Z" transform="translate(-259.45 -155.04)"/></g><g id="Body"><path class="cls-3" d="M860.44,405.91C873,510.48,615.31,615.65,592.13,618.6c-32.71,4.16-67.45,5-101.15-.29L331,488.65c-.17-.56-.34-1.12-.5-1.67a208.41,208.41,0,0,1-7.69-73.2c10.17-143.85,137.34-245.44,268-230.73,65.22,7.35,128.75,38.41,180.13,81.66C812.48,299.64,853.48,347.85,860.44,405.91Z" transform="translate(-259.45 -155.04)"/><path class="cls-4" d="M771,264.71c-51.38-43.25-114.91-74.31-180.13-81.66-97.28-11-192.61,42.57-239.18,130-.4,2.29-.79,4.58-1.15,6.88-13.72,88.16,9.25,172,56,229.91L479,608.56a194.77,194.77,0,0,0,31.27,12.11c27.54,2.49,55.39,1.3,81.9-2.07,10.1-1.29,64.67-22,122-53.52C759.06,522.57,792,461.47,803.06,390.4A322.51,322.51,0,0,0,804,296,366.75,366.75,0,0,0,771,264.71Z" transform="translate(-259.45 -155.04)"/><path class="cls-5" d="M716.56,412.59c11.94-76.65-3.87-150-38.92-205.93-27.93-12-57.19-20.27-86.8-23.61-130.67-14.71-257.84,86.88-268,230.73a208.41,208.41,0,0,0,7.69,73.2c.16.55.33,1.11.5,1.67L491,618.31c31.54,5,64,4.53,94.81,1.05C651.63,579.39,702.29,504.28,716.56,412.59Z" transform="translate(-259.45 -155.04)"/><path class="cls-4" d="M630.44,411.26c13.69-87.91-9.12-171.47-55.59-229.41-124.88-5.12-242.26,94-252,231.93a208.41,208.41,0,0,0,7.69,73.2c.16.55.33,1.11.5,1.67L491,618.31c2.2.34,4.41.66,6.61,1C564.44,579.63,616,503.9,630.44,411.26Z" transform="translate(-259.45 -155.04)"/><path class="cls-3" d="M496.7,192.23c-92,28.68-166.2,113.1-173.87,221.55a208.41,208.41,0,0,0,7.69,73.2c.16.55.33,1.11.5,1.67l115.82,93.88c46.86-42.62,81.35-105.16,92.73-178.23C552,324.82,534.5,248.88,496.7,192.23Z" transform="translate(-259.45 -155.04)"/></g><g id="Pectoral_Fin" data-name="Pectoral Fin"><path class="cls-6" d="M718.41,313.62C734.73,308.06,796.3,294,783,331.71c-5.15,14.59-17.32,27-27.05,38.77-13.71,16.53-28.36,33.46-35.55,52.71-11.66,31.21,3.4,55.48,13.55,86.3,9.53,29-22.27,17.64-37.07,10.25-31.37-15.68-58.12-41-83.31-66.42-9.9-10-29.78-22.3-31.85-30.13-1.79-6.8,20.77-27.07,28.41-35.27C640.46,355.35,677.15,327.68,718.41,313.62Z" transform="translate(-259.45 -155.04)"/><path class="cls-6" d="M718,313.62c16.31-5.56,77.89-19.66,64.56,18.09-5.15,14.59-17.32,27-27,38.77-13.71,16.53-28.36,33.46-35.55,52.71-11.66,31.21,3.4,55.48,13.54,86.3,9.54,29-22.26,17.64-37.06,10.25-31.37-15.68-58.12-41-83.31-66.42-9.9-10-29.79-22.3-31.85-30.13-1.79-6.8,20.77-27.07,28.41-35.27C640,355.35,676.69,327.68,718,313.62Z" transform="translate(-259.45 -155.04)"/><path class="cls-1" d="M718,313.62c16.31-5.56,77.89-19.66,64.56,18.09-5.15,14.59-17.32,27-27,38.77-13.71,16.53-28.36,33.46-35.55,52.71-11.66,31.21,3.4,55.48,13.54,86.3,9.54,29-22.26,17.64-37.06,10.25-31.37-15.68-58.12-41-83.31-66.42-9.9-10-29.79-22.3-31.85-30.13-1.79-6.8,20.77-27.07,28.41-35.27C640,355.35,676.69,327.68,718,313.62Z" transform="translate(-259.45 -155.04)"/><path class="cls-2" d="M616.75,387.92c-9.43,8.2-37.24,28.47-35,35.27,2.54,7.83,27.06,20.13,39.27,30.13,31.06,25.43,64,50.74,102.72,66.42,3,1.22,6.65,2.56,10.51,3.81,1.44-2.94,1.42-7.45-.76-14.06-10.14-30.82-25.2-55.09-13.54-86.3,7.19-19.25,21.84-36.18,35.55-52.71,9.73-11.73,21.9-24.18,27-38.77,4.61-13.06.26-19.91-8.08-23.06a221.12,221.12,0,0,0-24.15,5C699.41,327.68,654.17,355.35,616.75,387.92Z" transform="translate(-259.45 -155.04)"/><path class="cls-1" d="M755.47,370.48c9.73-11.73,21.9-24.18,27-38.77,1.67-4.73,2.16-8.64,1.72-11.86a542.49,542.49,0,0,0-154.82,68.07c-12.81,8.2-50.66,28.47-47.66,35.27,3.46,7.83,36.82,20.13,53.43,30.13,30.19,18.16,61.72,36.24,96.45,50.82-10-28.34-22.7-51.56-11.72-80.95C727.11,403.94,741.76,387,755.47,370.48Z" transform="translate(-259.45 -155.04)"/><path class="cls-2" d="M755.47,370.48c8.47-10.21,18.78-21,24.71-33.21a860,860,0,0,0-134.81,50.65c-16.37,7.79-63.11,26.5-64.21,34.17,0,.1,0,.21,0,.32a1.59,1.59,0,0,0,.22.78c4.64,7.83,49.44,20.13,71.74,30.13,22.9,10.26,46.36,20.49,70.85,30.09-7.23-19.77-12.24-38.28-4-60.22C727.11,403.94,741.76,387,755.47,370.48Z" transform="translate(-259.45 -155.04)"/><path class="cls-1" d="M670.25,387.92c-23.76,8.2-93.91,28.47-88.34,35.27,6.41,7.83,68.25,20.13,99,30.13q18.43,6,37.26,11.92c-3.31-13.41-3.94-26.91,1.71-42.05,7.19-19.25,21.84-36.18,35.55-52.71,3.15-3.8,6.55-7.67,9.88-11.66C731.81,367.85,700.05,377.64,670.25,387.92Z" transform="translate(-259.45 -155.04)"/><path class="cls-2" d="M708.75,386.7c-31.57,7.57-120.09,25.43-127.16,33.48a9.63,9.63,0,0,0-.36,1.31,1.32,1.32,0,0,0,.36.48c8.69,7.37,88,18.69,134.23,28.32a64.57,64.57,0,0,1,4.1-27.1c6.22-16.66,18-31.57,30-46Q728.92,381.87,708.75,386.7Z" transform="translate(-259.45 -155.04)"/><path class="cls-1" d="M736.44,394.19c-66.72,9.6-164,23.58-154.15,29,9.4,5.15,72.12,12.22,133.51,19.3a65,65,0,0,1,4.12-19.3C723.74,413,729.67,403.4,736.44,394.19Z" transform="translate(-259.45 -155.04)"/><path class="cls-2" d="M727.26,408c-89.41,6.25-157.14,12.1-144,15.19,12.4,2.92,64.72,6.46,133.75,10.27a67.54,67.54,0,0,1,2.95-10.27A98.2,98.2,0,0,1,727.26,408Z" transform="translate(-259.45 -155.04)"/><path class="cls-1" d="M723.22,415.53c-102.21,3.18-159,5.89-136.9,7.68,18,1.45,64.76,3.06,132,4.78.47-1.59,1-3.18,1.59-4.8C720.89,420.59,722,418,723.22,415.53Z" transform="translate(-259.45 -155.04)"/></g><g id="Head"><path class="cls-1" d="M476,198.33c25.77-10.92,123-38.58,102,35.5-8.14,28.63-27.36,53.06-42.72,76.07-21.65,32.44-44.79,65.66-56.14,103.43-18.41,61.25,5.37,108.86,21.39,169.34,15.06,56.87-35.16,34.62-58.53,20.11C392.43,572,350.19,522.36,310.41,472.45c-15.64-19.62-47-43.74-50.3-59.12-2.83-13.34,32.8-53.12,44.86-69.2C352.91,280.22,410.85,225.92,476,198.33Z" transform="translate(-259.45 -155.04)"/></g><g id="Tail"><path class="cls-1" d="M990.48,565.27c18,6.52,109.92,35.1,85.3-16.41-22.68-47.43-72.47-79.8-72.47-131.51,0-52.09,50.23-83.66,72.47-131.52,23.78-51.17-65.74-23.5-85.3-16.4C905,300.4,759.8,409.18,759.75,417.35,759.65,434.64,905.41,534.42,990.48,565.27Z" transform="translate(-259.45 -155.04)"/><path class="cls-2" d="M1003.31,417.35c0-47.72,42.17-78.23,66.34-119.82C924.25,341.6,759.82,410.9,759.75,417.35h0a3.29,3.29,0,0,0,0,.44c3.25,14.59,166.49,78.93,310.34,120.45C1045.79,496.38,1003.31,465.11,1003.31,417.35Z" transform="translate(-259.45 -155.04)"/><path class="cls-1" d="M1003.31,417.35c0-18.54,6.37-34.47,15.56-49.47-151.69,25.32-259,46.08-259.12,49.47,0,0,0,0,0,.07s0,.09,0,.13c1.85,7.43,110,28.86,261.75,53.59C1010.91,454.79,1003.31,437.55,1003.31,417.35Z" transform="translate(-259.45 -155.04)"/><path class="cls-2" d="M1003.31,417.35a80.11,80.11,0,0,1,1.59-15.84c-154.69,8.41-245,14.19-245.15,15.84-.31,3.5,90.4,10.41,246,19.44A80.18,80.18,0,0,1,1003.31,417.35Z" transform="translate(-259.45 -155.04)"/></g></svg>